<mxfile host="app.diagrams.net" modified="2023-01-18T15:45:01.551Z" agent="5.0 (X11; Linux x86_64) AppleWebKit/537.36 (KHTML, like Gecko) Chrome/109.0.0.0 Safari/537.36 Edg/109.0.1518.52" version="20.8.5" etag="Shqa8k1DMuKZmw7j-KHS" type="github">
  <diagram id="M6EHaw0311H0_tJGI7Wd" name="第 1 页">
    <mxGraphModel dx="1877" dy="582" grid="1" gridSize="10" guides="1" tooltips="1" connect="1" arrows="1" fold="1" page="1" pageScale="1" pageWidth="827" pageHeight="1169" math="0" shadow="0">
      <root>
        <mxCell id="0" />
        <mxCell id="1" parent="0" />
        <mxCell id="HAXV3gpLh5YKWVYcCZqq-2" value="二维数组" style="rounded=1;whiteSpace=wrap;html=1;strokeWidth=2;fillWeight=4;hachureGap=8;hachureAngle=45;fillColor=#FF8000;sketch=1;fontSize=30;" vertex="1" parent="1">
          <mxGeometry x="367.5" y="70" width="135" height="60" as="geometry" />
        </mxCell>
        <mxCell id="HAXV3gpLh5YKWVYcCZqq-3" value="" style="shape=curlyBracket;whiteSpace=wrap;html=1;rounded=1;labelPosition=left;verticalLabelPosition=middle;align=right;verticalAlign=middle;fontSize=30;rotation=90;" vertex="1" parent="1">
          <mxGeometry x="425" y="-100" width="20" height="480" as="geometry" />
        </mxCell>
        <mxCell id="HAXV3gpLh5YKWVYcCZqq-6" value="" style="rounded=1;whiteSpace=wrap;html=1;strokeWidth=2;fillWeight=4;hachureGap=8;hachureAngle=45;fillColor=#1ba1e2;sketch=1;fontSize=30;" vertex="1" parent="1">
          <mxGeometry x="195" y="250" width="120" height="60" as="geometry" />
        </mxCell>
        <mxCell id="HAXV3gpLh5YKWVYcCZqq-7" value="" style="rounded=1;whiteSpace=wrap;html=1;strokeWidth=2;fillWeight=4;hachureGap=8;hachureAngle=45;fillColor=#1ba1e2;sketch=1;fontSize=30;" vertex="1" parent="1">
          <mxGeometry x="195" y="490" width="480" height="60" as="geometry" />
        </mxCell>
        <mxCell id="HAXV3gpLh5YKWVYcCZqq-8" value="" style="rounded=1;whiteSpace=wrap;html=1;strokeWidth=2;fillWeight=4;hachureGap=8;hachureAngle=45;fillColor=#1ba1e2;sketch=1;fontSize=30;" vertex="1" parent="1">
          <mxGeometry x="195" y="570" width="480" height="60" as="geometry" />
        </mxCell>
        <mxCell id="HAXV3gpLh5YKWVYcCZqq-9" value="" style="rounded=1;whiteSpace=wrap;html=1;strokeWidth=2;fillWeight=4;hachureGap=8;hachureAngle=45;fillColor=#1ba1e2;sketch=1;fontSize=30;" vertex="1" parent="1">
          <mxGeometry x="195" y="330" width="480" height="60" as="geometry" />
        </mxCell>
        <mxCell id="HAXV3gpLh5YKWVYcCZqq-11" value="" style="rounded=1;whiteSpace=wrap;html=1;strokeWidth=2;fillWeight=4;hachureGap=8;hachureAngle=45;fillColor=#1ba1e2;sketch=1;fontSize=30;" vertex="1" parent="1">
          <mxGeometry x="195" y="410" width="240" height="60" as="geometry" />
        </mxCell>
        <mxCell id="HAXV3gpLh5YKWVYcCZqq-23" value="" style="strokeWidth=2;html=1;shape=mxgraph.flowchart.annotation_1;align=left;pointerEvents=1;fontSize=30;" vertex="1" parent="1">
          <mxGeometry x="145" y="280" width="50" height="160" as="geometry" />
        </mxCell>
        <mxCell id="HAXV3gpLh5YKWVYcCZqq-24" value="" style="strokeWidth=2;html=1;shape=mxgraph.flowchart.annotation_1;align=left;pointerEvents=1;fontSize=30;" vertex="1" parent="1">
          <mxGeometry x="145" y="440" width="50" height="80" as="geometry" />
        </mxCell>
        <mxCell id="HAXV3gpLh5YKWVYcCZqq-30" value="" style="shape=flexArrow;endArrow=classic;html=1;rounded=0;fontSize=30;fillColor=#FF33FF;" edge="1" parent="1">
          <mxGeometry width="50" height="50" relative="1" as="geometry">
            <mxPoint x="145" y="400" as="sourcePoint" />
            <mxPoint x="15" y="400" as="targetPoint" />
          </mxGeometry>
        </mxCell>
        <mxCell id="HAXV3gpLh5YKWVYcCZqq-31" value="" style="shape=flexArrow;endArrow=classic;html=1;rounded=0;fontSize=30;fillColor=#00FF00;" edge="1" parent="1">
          <mxGeometry width="50" height="50" relative="1" as="geometry">
            <mxPoint x="195" y="359.5" as="sourcePoint" />
            <mxPoint x="15" y="359.5" as="targetPoint" />
          </mxGeometry>
        </mxCell>
        <mxCell id="HAXV3gpLh5YKWVYcCZqq-32" value="" style="shape=flexArrow;endArrow=classic;html=1;rounded=0;fontSize=30;fillColor=#FF0000;" edge="1" parent="1">
          <mxGeometry width="50" height="50" relative="1" as="geometry">
            <mxPoint x="195" y="599.5" as="sourcePoint" />
            <mxPoint x="15" y="599.5" as="targetPoint" />
          </mxGeometry>
        </mxCell>
        <mxCell id="HAXV3gpLh5YKWVYcCZqq-33" value="Free Array Bucket" style="rounded=1;whiteSpace=wrap;html=1;strokeWidth=2;fillWeight=4;hachureGap=8;hachureAngle=45;sketch=1;fontSize=30;" vertex="1" parent="1">
          <mxGeometry x="195" y="170" width="480" height="60" as="geometry" />
        </mxCell>
        <mxCell id="HAXV3gpLh5YKWVYcCZqq-34" value="VarPage" style="text;html=1;align=center;verticalAlign=middle;resizable=0;points=[];autosize=1;strokeColor=none;fillColor=none;fontSize=30;" vertex="1" parent="1">
          <mxGeometry x="-125" y="335" width="140" height="50" as="geometry" />
        </mxCell>
        <mxCell id="HAXV3gpLh5YKWVYcCZqq-35" value="FixPage" style="text;html=1;align=center;verticalAlign=middle;resizable=0;points=[];autosize=1;strokeColor=none;fillColor=none;fontSize=30;" vertex="1" parent="1">
          <mxGeometry x="-120" y="375" width="130" height="50" as="geometry" />
        </mxCell>
        <mxCell id="HAXV3gpLh5YKWVYcCZqq-37" value="FixPage" style="text;html=1;align=center;verticalAlign=middle;resizable=0;points=[];autosize=1;strokeColor=none;fillColor=none;fontSize=30;" vertex="1" parent="1">
          <mxGeometry x="-120" y="575" width="130" height="50" as="geometry" />
        </mxCell>
        <mxCell id="HAXV3gpLh5YKWVYcCZqq-38" value="0" style="rounded=1;whiteSpace=wrap;html=1;strokeWidth=2;fillWeight=4;hachureGap=8;hachureAngle=45;fillColor=#1ba1e2;sketch=1;fontSize=30;" vertex="1" parent="1">
          <mxGeometry x="690" y="170" width="120" height="60" as="geometry" />
        </mxCell>
        <mxCell id="HAXV3gpLh5YKWVYcCZqq-39" value="1" style="rounded=1;whiteSpace=wrap;html=1;strokeWidth=2;fillWeight=4;hachureGap=8;hachureAngle=45;fillColor=#1ba1e2;sketch=1;fontSize=30;" vertex="1" parent="1">
          <mxGeometry x="690" y="250" width="120" height="60" as="geometry" />
        </mxCell>
        <mxCell id="HAXV3gpLh5YKWVYcCZqq-40" value="1" style="rounded=1;whiteSpace=wrap;html=1;strokeWidth=2;fillWeight=4;hachureGap=8;hachureAngle=45;fillColor=#1ba1e2;sketch=1;fontSize=30;" vertex="1" parent="1">
          <mxGeometry x="690" y="330" width="120" height="60" as="geometry" />
        </mxCell>
        <mxCell id="HAXV3gpLh5YKWVYcCZqq-41" value="1" style="rounded=1;whiteSpace=wrap;html=1;strokeWidth=2;fillWeight=4;hachureGap=8;hachureAngle=45;fillColor=#1ba1e2;sketch=1;fontSize=30;" vertex="1" parent="1">
          <mxGeometry x="690" y="410" width="120" height="60" as="geometry" />
        </mxCell>
        <mxCell id="HAXV3gpLh5YKWVYcCZqq-42" value="1" style="rounded=1;whiteSpace=wrap;html=1;strokeWidth=2;fillWeight=4;hachureGap=8;hachureAngle=45;fillColor=#1ba1e2;sketch=1;fontSize=30;" vertex="1" parent="1">
          <mxGeometry x="690" y="490" width="120" height="60" as="geometry" />
        </mxCell>
        <mxCell id="HAXV3gpLh5YKWVYcCZqq-43" value="1" style="rounded=1;whiteSpace=wrap;html=1;strokeWidth=2;fillWeight=4;hachureGap=8;hachureAngle=45;fillColor=#1ba1e2;sketch=1;fontSize=30;" vertex="1" parent="1">
          <mxGeometry x="690" y="570" width="120" height="60" as="geometry" />
        </mxCell>
        <mxCell id="HAXV3gpLh5YKWVYcCZqq-46" value="位图" style="rounded=1;whiteSpace=wrap;html=1;strokeWidth=2;fillWeight=4;hachureGap=8;hachureAngle=45;fillColor=#FF8000;sketch=1;fontSize=30;" vertex="1" parent="1">
          <mxGeometry x="690" y="70" width="120" height="60" as="geometry" />
        </mxCell>
      </root>
    </mxGraphModel>
  </diagram>
</mxfile>
